<svg width="50" height="51" viewBox="0 0 50 51" fill="none" xmlns="http://www.w3.org/2000/svg">
<path d="M45.6055 0.222534H4.39453C1.97139 0.222534 0 2.19392 0 4.61707V45.6327C0 48.0558 1.97139 50.0272 4.39453 50.0272H45.6055C48.0286 50.0272 50 48.0558 50 45.6327V4.61707C50 2.19392 48.0286 0.222534 45.6055 0.222534ZM4.39453 3.15222H45.6055C46.4132 3.15222 47.0703 3.80935 47.0703 4.61707V11.9413H2.92969V4.61707C2.92969 3.80935 3.58682 3.15222 4.39453 3.15222ZM45.6055 47.0975H4.39453C3.58682 47.0975 2.92969 46.4404 2.92969 45.6327V14.871H47.0703V45.6327C47.0703 46.4404 46.4132 47.0975 45.6055 47.0975Z" fill="white"/>
</svg>
